# xmcd
#
# Track frame offsets:
#	150
#	10859
#	22611
#	35608
#	49943
#	66246
#	80034
#	93017
#	107277
#	128397
#	144766
#	160370
#	177576
#	196933
#	213680
#	228734
#	243018
#	257725
#	273035
#	287870
#
# Disc length: 4098 seconds
#
# Revision: 0
# Processed by: cddbd v1.5.2PL0 Copyright (c) Steve Scherf et al.
# Submitted via: audiograbber 1.83.01
#
DISCID=09100014
DTITLE=Various Artist - COUNTRY JULY 2015
DYEAR=2015
DGENRE=Country
TTITLE0=ZAC BROWN BAND - LOVING YOU EASY
TTITLE1=BRETT ELDREDGE - LOSE MY MIND
TTITLE2=JACKIE LEE - HEADPHONES
TTITLE3=OLIVIA LANE - YOU PART 2
TTITLE4=ASHLEY CLARK - GREYHOUND
TTITLE5=RANDY HOUSER - WE WENT
TTITLE6=CHRIS JANSON - BUY ME A BOAT
TTITLE7=LEE BRICE - THAT DON'T SOUND LIKE YOU
TTITLE8=LOVE AND THEFT - WHISKEY ON MY BREATH
TTITLE9=LAVENDINE - MAYBE I MIGHT
TTITLE10=COREY SMITH - FEET WET
TTITLE11=KRIS KRISTOFFERSON - I WON'T BACK DOWN
TTITLE12=JB MOONSHINE BAND - SHOT GUN RIFLR and A 45
TTITLE13=GRANGER SMITH - BACKROAD SONG
TTITLE14=LUCY ANGEL - CRAZY TOO
TTITLE15=CADILLAC THREE - WHITE LIGHTING
TTITLE16=CHRIS YOUNG - I'M COMIN OVER
TTITLE17=STEVEN TYLER - LOVE IS YOUR NAME
TTITLE18=ADLEY STUMP - STAY AT HOME SOLDIER
TTITLE19=LOGAN MIZE - CANT GET AWAY FROM A GOOD TIME
EXTD=
EXTT0=
EXTT1=
EXTT2=
EXTT3=
EXTT4=
EXTT5=
EXTT6=
EXTT7=
EXTT8=
EXTT9=
EXTT10=
EXTT11=
EXTT12=
EXTT13=
EXTT14=
EXTT15=
EXTT16=
EXTT17=
EXTT18=
EXTT19=
PLAYORDER=
